<?xml version="1.0" encoding="UTF-8"?>
<svg version="1.1" xmlns="http://www.w3.org/2000/svg" width="512" height="512">
<path d="M0 0 C1.2230071 -0.00679667 1.2230071 -0.00679667 2.47072142 -0.01373065 C5.20048397 -0.02638232 7.9300472 -0.02475378 10.65983582 -0.02310181 C12.61801408 -0.02908659 14.57618999 -0.03589203 16.53436279 -0.04345703 C21.85262868 -0.06112972 27.17083022 -0.06581296 32.48912263 -0.0670886 C35.81244403 -0.06851009 39.13574906 -0.07277966 42.45906639 -0.07808304 C54.05497146 -0.09658781 65.65083054 -0.10475313 77.24674988 -0.10317993 C88.05255072 -0.10197855 98.85815181 -0.12307916 109.6639021 -0.15466726 C118.94389085 -0.18082755 128.22381434 -0.19154732 137.50383967 -0.19026911 C143.04516062 -0.18975939 148.58630408 -0.19544839 154.12758827 -0.21662521 C159.34053829 -0.2360032 164.55314143 -0.23613492 169.76610374 -0.22159195 C171.67685834 -0.21950219 173.58763462 -0.22421469 175.49835205 -0.23631287 C178.11218162 -0.25178796 180.7248185 -0.24244266 183.33862305 -0.22705078 C184.09009938 -0.23733791 184.8415757 -0.24762503 185.61582404 -0.25822389 C192.06190915 -0.174663 197.1382845 1.9746199 202.06681824 6.12680054 C202.59662292 6.75070679 203.12642761 7.37461304 203.67228699 8.01742554 C204.2149823 8.63101929 204.75767761 9.24461304 205.31681824 9.87680054 C210.22378663 17.47949586 210.24395237 24.46286753 210.04728699 33.26742554 C210.03375183 34.4237146 210.02021667 35.58000366 210.00627136 36.77133179 C209.97115743 39.60385557 209.92197699 42.43538861 209.85978699 45.26742554 C210.5494606 45.25854309 211.23913422 45.24966064 211.94970703 45.24050903 C218.4948843 45.15988343 225.03992011 45.09922015 231.5854845 45.06017685 C234.94951624 45.03942832 238.31313279 45.01134962 241.67692566 44.96566772 C245.55699855 44.9167985 249.43649225 44.89437548 253.31681824 44.87680054 C254.50684952 44.8561554 255.6968808 44.83551025 256.92297363 44.8142395 C268.82308216 44.8110867 278.1831887 47.98059632 286.85978699 56.26742554 C294.86868077 64.86626015 297.46757891 74.2750863 297.36772156 85.81150818 C297.3770815 87.49313943 297.3770815 87.49313943 297.38663054 89.20874304 C297.40251099 92.94344665 297.38997502 96.67749314 297.37736511 100.41220093 C297.38278839 103.09856555 297.38976815 105.78488578 297.39860535 108.47123718 C297.41634373 114.99681931 297.41257177 121.52221688 297.40095478 128.04780609 C297.39190299 133.35309312 297.39070399 138.6583286 297.39505005 143.96362114 C297.39566298 144.72011671 297.39627591 145.47661229 297.39690742 146.25603197 C297.39818638 147.79306306 297.39948324 149.33009414 297.40079778 150.86712521 C297.41218966 165.26202014 297.39911138 179.65681298 297.37759632 194.05169117 C297.35972295 206.39196425 297.36283407 218.73208681 297.38127136 231.07235718 C297.40269647 245.41903088 297.41109497 259.76561526 297.39882231 274.11230272 C297.39754817 275.64321703 297.39629069 277.17413136 297.39505005 278.7050457 C297.3941244 279.83477059 297.3941244 279.83477059 297.39318004 280.98731821 C297.38973233 286.28417562 297.3955429 291.58097618 297.40496826 296.87782478 C297.41620774 303.33581134 297.41310731 309.79360351 297.39184529 316.25156791 C297.38136135 319.54393766 297.37933485 322.83591834 297.39044189 326.1282959 C297.40138768 329.70262793 297.38764366 333.27605219 297.36772156 336.85032654 C297.38110589 338.39995113 297.38110589 338.39995113 297.39476061 339.98088127 C297.28803374 349.86678991 293.71430865 358.09205393 286.85978699 365.26742554 C278.62731378 372.07865744 271.80349905 374.57646624 261.22697449 374.60336304 C260.31271698 374.61001984 259.39845947 374.61667664 258.45649719 374.62353516 C256.53186547 374.63362424 254.60719903 374.63835334 252.68254089 374.63803101 C249.73713628 374.64242203 246.79320989 374.6788294 243.84806824 374.71664429 C241.97437543 374.72250965 240.10067553 374.72648092 238.22697449 374.72836304 C237.34774323 374.74273407 236.46851196 374.7571051 235.56263733 374.77191162 C229.4830349 374.72635729 229.4830349 374.72635729 226.27433777 372.36361694 C224.85978699 370.26742554 224.85978699 370.26742554 224.85978699 368.26742554 C221.44164678 368.29025492 218.02683985 368.36759588 214.60978699 368.45492554 C213.64170105 368.46072632 212.67361511 368.4665271 211.67619324 368.47250366 C210.74162292 368.50150757 209.80705261 368.53051147 208.84416199 368.56039429 C207.9853241 368.57610474 207.12648621 368.59181519 206.24162292 368.60800171 C203.60356395 369.08003843 203.60356395 369.08003843 201.94889832 371.77230835 C199.85978699 374.26742554 199.85978699 374.26742554 196.88298035 374.89852905 C195.18347229 374.89744141 195.18347229 374.89744141 193.44963074 374.89633179 C191.59434753 374.89923218 191.59434753 374.89923218 189.70158386 374.90219116 C188.41316589 374.87834351 187.12474792 374.85449585 185.79728699 374.82992554 C184.50500183 374.84088257 183.21271667 374.8518396 181.88127136 374.86312866 C172.37618528 374.78875397 172.37618528 374.78875397 169.967453 372.35702515 C168.85978699 370.26742554 168.85978699 370.26742554 168.85978699 368.26742554 C161.59978699 368.26742554 154.33978699 368.26742554 146.85978699 368.26742554 C146.52978699 369.58742554 146.19978699 370.90742554 145.85978699 372.26742554 C143.37636979 374.75084274 141.92918705 374.5119836 138.53982586 374.54423654 C137.7930557 374.54113934 137.04628554 374.53804213 136.27688599 374.53485107 C135.08940878 374.54164774 135.08940878 374.54164774 133.87794214 374.54858172 C131.21029231 374.56129857 128.54284474 374.55960065 125.87516785 374.55795288 C123.96831498 374.56393385 122.06146454 374.57073839 120.15461731 374.57830811 C114.96213542 374.59602559 109.76971938 374.60066608 104.57721019 374.60193968 C100.24353859 374.60383613 95.90988243 374.61119128 91.57621676 374.61828387 C81.34757145 374.6345895 71.11896137 374.63945108 60.89030457 374.63803101 C50.34304093 374.636831 39.79598241 374.65789961 29.24877065 374.68951833 C20.19472699 374.71569253 11.14075023 374.72639772 2.08666903 374.72512019 C-3.32114988 374.72461062 -8.72878686 374.73029028 -14.13656807 374.75147629 C-19.2280092 374.7708762 -24.31909533 374.770971 -29.41054916 374.75644302 C-31.2757297 374.75435557 -33.14093253 374.75905203 -35.00607491 374.77116394 C-53.07077088 374.8808372 -53.07077088 374.8808372 -60.14021301 370.26742554 C-60.85433381 369.82203619 -61.56845461 369.37664684 -62.30421543 368.91776085 C-69.63858219 364.14785343 -74.92614627 356.70040524 -77.14021301 348.26742554 C-77.43527185 344.58634783 -77.42293598 340.91591265 -77.41436768 337.22454834 C-77.41960435 336.10899523 -77.42484103 334.99344213 -77.4302364 333.84408438 C-77.44524408 330.10413974 -77.44594174 326.36433183 -77.4466095 322.62435913 C-77.45423055 319.94346545 -77.46260927 317.26258325 -77.47183228 314.58169556 C-77.49465618 307.29635407 -77.50260027 300.01104177 -77.50765872 292.72566938 C-77.51091919 288.17296002 -77.51744385 283.62025907 -77.52466011 279.06755447 C-77.54422371 266.45200308 -77.56062897 253.8364595 -77.56353664 241.22089195 C-77.56372421 240.41399594 -77.56391178 239.60709993 -77.56410504 238.77575252 C-77.56447128 237.14010723 -77.56483498 235.50446195 -77.56519615 233.86881666 C-77.56537896 233.05692497 -77.56556177 232.24503328 -77.56575012 231.40853882 C-77.56593067 230.59565111 -77.56611122 229.78276339 -77.56629724 228.94524272 C-77.56983689 215.78134304 -77.59684719 202.61760715 -77.63424801 189.45376424 C-77.67237664 175.92499914 -77.69169446 162.39631519 -77.69199616 148.86749518 C-77.69257975 141.27707403 -77.70100814 133.68684822 -77.72999382 126.09647751 C-77.75456895 119.6315209 -77.76174961 113.16683084 -77.74674629 106.70184009 C-77.73960177 103.40700478 -77.74307683 100.11280172 -77.76315689 96.81800461 C-77.78365297 93.23561698 -77.77304261 89.65457627 -77.75494385 86.07220459 C-77.76814382 85.04513157 -77.78134378 84.01805856 -77.79494375 82.95986211 C-77.6716747 72.22189159 -73.83945063 62.99259993 -66.38240051 55.24008179 C-57.22671936 47.18499646 -48.14406605 44.93020737 -36.20271301 45.14242554 C-34.74768372 45.15596069 -34.74768372 45.15596069 -33.26325989 45.16976929 C-30.88864895 45.19316447 -28.51456526 45.22594378 -26.14021301 45.26742554 C-26.16116028 44.56246948 -26.18210754 43.85751343 -26.20368958 43.13119507 C-26.2877002 39.88508823 -26.33913998 36.63921114 -26.39021301 33.39242554 C-26.42372864 32.28383179 -26.45724426 31.17523804 -26.49177551 30.03305054 C-26.59253146 21.46879537 -25.51427265 14.37182724 -19.95661926 7.61117554 C-19.2128302 7.00273804 -18.46904114 6.39430054 -17.70271301 5.76742554 C-16.59089661 4.82383179 -16.59089661 4.82383179 -15.45661926 3.86117554 C-10.44421298 0.41250477 -5.96832517 -0.02438128 0 0 Z " fill="#FDCC1A" transform="translate(146.1402130126953,68.73257446289063)"/>
<path d="M0 0 C1.2230071 -0.00679667 1.2230071 -0.00679667 2.47072142 -0.01373065 C5.20048397 -0.02638232 7.9300472 -0.02475378 10.65983582 -0.02310181 C12.61801408 -0.02908659 14.57618999 -0.03589203 16.53436279 -0.04345703 C21.85262868 -0.06112972 27.17083022 -0.06581296 32.48912263 -0.0670886 C35.81244403 -0.06851009 39.13574906 -0.07277966 42.45906639 -0.07808304 C54.05497146 -0.09658781 65.65083054 -0.10475313 77.24674988 -0.10317993 C88.05255072 -0.10197855 98.85815181 -0.12307916 109.6639021 -0.15466726 C118.94389085 -0.18082755 128.22381434 -0.19154732 137.50383967 -0.19026911 C143.04516062 -0.18975939 148.58630408 -0.19544839 154.12758827 -0.21662521 C159.34053829 -0.2360032 164.55314143 -0.23613492 169.76610374 -0.22159195 C171.67685834 -0.21950219 173.58763462 -0.22421469 175.49835205 -0.23631287 C178.11218162 -0.25178796 180.7248185 -0.24244266 183.33862305 -0.22705078 C184.09009938 -0.23733791 184.8415757 -0.24762503 185.61582404 -0.25822389 C192.06190915 -0.174663 197.1382845 1.9746199 202.06681824 6.12680054 C202.59662292 6.75070679 203.12642761 7.37461304 203.67228699 8.01742554 C204.2149823 8.63101929 204.75767761 9.24461304 205.31681824 9.87680054 C210.22378663 17.47949586 210.24395237 24.46286753 210.04728699 33.26742554 C210.03375183 34.4237146 210.02021667 35.58000366 210.00627136 36.77133179 C209.97115743 39.60385557 209.92197699 42.43538861 209.85978699 45.26742554 C210.5494606 45.25854309 211.23913422 45.24966064 211.94970703 45.24050903 C218.4948843 45.15988343 225.03992011 45.09922015 231.5854845 45.06017685 C234.94951624 45.03942832 238.31313279 45.01134962 241.67692566 44.96566772 C245.55699855 44.9167985 249.43649225 44.89437548 253.31681824 44.87680054 C254.50684952 44.8561554 255.6968808 44.83551025 256.92297363 44.8142395 C268.82308216 44.8110867 278.1831887 47.98059632 286.85978699 56.26742554 C294.86868077 64.86626015 297.46757891 74.2750863 297.36772156 85.81150818 C297.3770815 87.49313943 297.3770815 87.49313943 297.38663054 89.20874304 C297.40251099 92.94344665 297.38997502 96.67749314 297.37736511 100.41220093 C297.38278839 103.09856555 297.38976815 105.78488578 297.39860535 108.47123718 C297.41634373 114.99681931 297.41257177 121.52221688 297.40095478 128.04780609 C297.39190299 133.35309312 297.39070399 138.6583286 297.39505005 143.96362114 C297.39566298 144.72011671 297.39627591 145.47661229 297.39690742 146.25603197 C297.39818638 147.79306306 297.39948324 149.33009414 297.40079778 150.86712521 C297.41218966 165.26202014 297.39911138 179.65681298 297.37759632 194.05169117 C297.35972295 206.39196425 297.36283407 218.73208681 297.38127136 231.07235718 C297.40269647 245.41903088 297.41109497 259.76561526 297.39882231 274.11230272 C297.39754817 275.64321703 297.39629069 277.17413136 297.39505005 278.7050457 C297.3941244 279.83477059 297.3941244 279.83477059 297.39318004 280.98731821 C297.38973233 286.28417562 297.3955429 291.58097618 297.40496826 296.87782478 C297.41620774 303.33581134 297.41310731 309.79360351 297.39184529 316.25156791 C297.38136135 319.54393766 297.37933485 322.83591834 297.39044189 326.1282959 C297.40138768 329.70262793 297.38764366 333.27605219 297.36772156 336.85032654 C297.38110589 338.39995113 297.38110589 338.39995113 297.39476061 339.98088127 C297.28803374 349.86678991 293.71430865 358.09205393 286.85978699 365.26742554 C278.62731378 372.07865744 271.80349905 374.57646624 261.22697449 374.60336304 C260.31271698 374.61001984 259.39845947 374.61667664 258.45649719 374.62353516 C256.53186547 374.63362424 254.60719903 374.63835334 252.68254089 374.63803101 C249.73713628 374.64242203 246.79320989 374.6788294 243.84806824 374.71664429 C241.97437543 374.72250965 240.10067553 374.72648092 238.22697449 374.72836304 C237.34774323 374.74273407 236.46851196 374.7571051 235.56263733 374.77191162 C229.5044149 374.72651749 229.5044149 374.72651749 226.27433777 372.42611694 C224.85978699 370.26742554 224.85978699 370.26742554 224.85978699 367.26742554 C226.03374194 363.74556069 226.89623664 362.49510826 229.85978699 360.26742554 C232.72069159 359.89677595 235.20704535 359.75633962 238.06291199 359.79867554 C238.85953247 359.79162598 239.65615295 359.78457642 240.47691345 359.77731323 C243.87407779 359.74790775 247.27066506 359.76438234 250.66789246 359.77670288 C253.15407346 359.77910036 255.63934448 359.7580704 258.12541199 359.73617554 C258.88090332 359.74749512 259.63639465 359.7588147 260.41477966 359.77047729 C266.54461184 359.71309553 271.76445352 358.04911861 276.3915863 353.89083862 C280.92237986 348.83649311 282.10524943 343.6151913 282.13394165 336.98780823 C282.14890434 335.12700371 282.14890434 335.12700371 282.16416931 333.22860718 C282.16506496 331.8667909 282.16572861 330.50497445 282.16618347 329.14315796 C282.17381098 327.69876174 282.18223949 326.25436957 282.19140625 324.8099823 C282.21329948 320.89662704 282.22214312 316.9833499 282.22723269 313.06994033 C282.23088231 310.62184147 282.23712549 308.17376288 282.24423409 305.72567177 C282.26871031 297.17602265 282.28177659 288.62643406 282.2853241 280.07675171 C282.28895827 272.12184419 282.31884964 264.16732274 282.36072868 256.21253318 C282.39547876 249.37070121 282.41087335 242.52899692 282.41157013 235.68707734 C282.41236132 231.60609017 282.42102682 227.52549661 282.44956779 223.44460106 C282.47582997 219.60386053 282.47790901 215.76383771 282.46191216 211.92304802 C282.46010411 210.51904478 282.46673003 209.11499949 282.48273087 207.71108627 C282.57085621 199.47214546 282.18005376 192.87121265 276.85978699 186.26742554 C271.96312748 182.27015247 268.11936825 181.14516544 261.92835999 181.13612366 C260.93602859 181.13211548 259.9436972 181.1281073 258.92129517 181.12397766 C257.83864883 181.12450638 256.7560025 181.1250351 255.64054871 181.12557983 C254.49535263 181.12210541 253.35015656 181.11863098 252.17025757 181.11505127 C249.68157817 181.1076969 247.19289223 181.10234982 244.70420456 181.0987606 C240.76090435 181.09159235 236.81772837 181.075922 232.87446594 181.05741882 C231.52208524 181.0510816 230.16970449 181.04475597 228.81732368 181.03844166 C228.14006933 181.03527585 227.46281498 181.03211004 226.76503778 181.02884829 C217.58895454 180.98685653 208.41291301 180.95382442 199.23674011 180.9414978 C192.37849989 180.93219046 185.5205812 180.90202639 178.66246414 180.86017799 C176.05271389 180.84788769 173.44291956 180.84274311 170.83314133 180.84497643 C167.17355508 180.84733708 163.51485824 180.82510208 159.85539246 180.79745483 C158.78489151 180.80405624 157.71439056 180.81065765 156.6114502 180.81745911 C146.34600706 180.6906462 137.31709722 177.50806587 129.85978699 170.26742554 C124.96483185 164.02927859 121.61018575 156.98975666 118.29728699 149.82992554 C114.28160736 141.24504116 114.28160736 141.24504116 110.18009949 132.70101929 C109.79483093 131.90623169 109.40956238 131.11144409 109.01261902 130.29257202 C106.70594722 126.24050879 103.06686264 124.01590466 98.85978699 122.26742554 C96.03581094 121.96162102 96.03581094 121.96162102 92.88987732 122 C91.66747345 121.99147003 90.44506958 121.98294006 89.18562317 121.97415161 C87.83384692 121.97485062 86.48207077 121.97577367 85.1302948 121.97689819 C83.704276 121.97091263 82.27826044 121.96410702 80.85224915 121.95654297 C76.98015419 121.93887533 73.10814764 121.93418718 69.23601627 121.9329114 C66.81507258 121.93148931 64.39415132 121.92721855 61.9732132 121.92191696 C53.5219785 121.90341193 45.07080689 121.89524666 36.61955261 121.89682007 C28.75106187 121.89802058 20.88284582 121.87693734 13.01442456 121.84533274 C6.25247831 121.8191438 -0.50937839 121.80845392 -7.27137494 121.80973089 C-11.30702446 121.81023989 -15.34243002 121.80459146 -19.37802887 121.78337479 C-23.17681013 121.76394888 -26.97511588 121.76389723 -30.77391434 121.77840805 C-32.16381401 121.78049211 -33.55374378 121.77581925 -34.94359207 121.76368713 C-42.77934506 121.69974953 -48.47811431 121.9535424 -55.14021301 126.26742554 C-57.21807339 128.19094338 -57.21807339 128.19094338 -58.57771301 130.32992554 C-59.05079895 131.0015271 -59.52388489 131.67312866 -60.01130676 132.36508179 C-62.51178226 136.57868583 -62.28586751 140.6584162 -62.28065491 145.39491272 C-62.28362603 146.23304325 -62.28659715 147.07117379 -62.28965831 147.93470222 C-62.29835546 150.75354644 -62.29985442 153.57234824 -62.30134583 156.39120483 C-62.30597334 158.40819897 -62.31099791 160.42519222 -62.31639099 162.44218445 C-62.3295248 167.92997191 -62.33596205 173.41774713 -62.34040165 178.90554786 C-62.34333124 182.33371442 -62.34743586 185.76187762 -62.35190582 189.1900425 C-62.36558431 199.91468658 -62.37524883 210.63932302 -62.37910771 221.36397523 C-62.38358728 233.74599428 -62.40112903 246.12790288 -62.43010831 258.50988835 C-62.45172601 268.07857448 -62.46181207 277.64722953 -62.46314883 287.21593982 C-62.46419694 292.93164329 -62.47010584 298.64724299 -62.48796844 304.36292076 C-62.50445022 309.74158464 -62.50660403 315.12006674 -62.49782944 320.49874687 C-62.49705908 322.47077674 -62.50140156 324.44281639 -62.51128769 326.41482162 C-62.52401292 329.11177022 -62.51812721 331.80807562 -62.50770569 334.50502014 C-62.51576209 335.2812064 -62.5238185 336.05739266 -62.53211904 336.85709971 C-62.4779633 342.86990775 -61.39813249 348.49585613 -57.49177551 353.29086304 C-56.92200989 353.73687866 -56.35224426 354.18289429 -55.76521301 354.64242554 C-55.20060364 355.10390991 -54.63599426 355.56539429 -54.05427551 356.04086304 C-49.28222576 359.09887043 -44.96130056 359.55514734 -39.39741516 359.51898193 C-38.23861162 359.52343714 -38.23861162 359.52343714 -37.05639791 359.52798235 C-34.4716303 359.53561189 -31.88709063 359.5291327 -29.30232239 359.52279663 C-27.44765061 359.52554697 -25.59298002 359.52922713 -23.73831177 359.5337677 C-19.74631153 359.54187671 -15.75436729 359.54404893 -11.76235962 359.54182053 C-5.45121175 359.53898815 0.85982411 359.55333596 7.17094421 359.57080078 C25.1165245 359.617837 43.06209702 359.64177459 61.00773621 359.64828491 C70.92037376 359.65203282 80.83288448 359.67003906 90.74546766 359.70337927 C97.02053103 359.72362011 103.29526787 359.72595063 109.57035065 359.7150991 C113.47226142 359.71249535 117.3739813 359.72647924 121.27584267 359.74518013 C123.08625404 359.75051055 124.89670039 359.74899084 126.70709801 359.74014473 C129.17751978 359.72904631 131.64664671 359.74242744 134.11698914 359.76190186 C134.83440356 359.7527772 135.55181798 359.74365254 136.29097223 359.73425138 C139.80456886 359.78820018 141.79115258 360.22537707 144.81246185 362.07636452 C146.85978699 364.26742554 146.85978699 364.26742554 147.35978699 367.82992554 C146.85978699 371.26742554 146.85978699 371.26742554 145.80998421 372.95803928 C142.79027862 374.98550653 139.67151674 374.68350434 136.15663147 374.65510559 C135.36412558 374.66049113 134.57161968 374.66587667 133.75509846 374.6714254 C131.09045672 374.68577157 128.42630712 374.67858485 125.76164246 374.67147827 C123.85464069 374.6771786 121.94764235 374.68414155 120.04064941 374.692276 C114.85232278 374.71026602 109.66416475 374.70902732 104.47581625 374.70333362 C100.14457448 374.70024823 95.81336539 374.70632741 91.48212826 374.71237236 C81.25967971 374.726437 71.03731467 374.72484199 60.81486511 374.71347046 C50.27495458 374.70200468 39.73529896 374.71603461 29.19542205 374.74286693 C20.14559605 374.76504195 11.09584993 374.77165673 2.04599869 374.76579052 C-3.35844066 374.76242196 -8.76271685 374.76482863 -14.16713333 374.78204155 C-19.25450002 374.79753571 -24.34149058 374.79352754 -29.42884254 374.7747364 C-31.29240536 374.77105647 -33.15599618 374.77414158 -35.01953316 374.78462219 C-53.06873433 374.8783491 -53.06873433 374.8783491 -60.14021301 370.26742554 C-61.21142489 369.5993722 -61.21142489 369.5993722 -62.30427742 368.91782284 C-69.63852121 364.14761276 -74.92611393 356.70052839 -77.14021301 348.26742554 C-77.43527185 344.58634783 -77.42293598 340.91591265 -77.41436768 337.22454834 C-77.41960435 336.10899523 -77.42484103 334.99344213 -77.4302364 333.84408438 C-77.44524408 330.10413974 -77.44594174 326.36433183 -77.4466095 322.62435913 C-77.45423055 319.94346545 -77.46260927 317.26258325 -77.47183228 314.58169556 C-77.49465618 307.29635407 -77.50260027 300.01104177 -77.50765872 292.72566938 C-77.51091919 288.17296002 -77.51744385 283.62025907 -77.52466011 279.06755447 C-77.54422371 266.45200308 -77.56062897 253.8364595 -77.56353664 241.22089195 C-77.56372421 240.41399594 -77.56391178 239.60709993 -77.56410504 238.77575252 C-77.56447128 237.14010723 -77.56483498 235.50446195 -77.56519615 233.86881666 C-77.56537896 233.05692497 -77.56556177 232.24503328 -77.56575012 231.40853882 C-77.56593067 230.59565111 -77.56611122 229.78276339 -77.56629724 228.94524272 C-77.56983689 215.78134304 -77.59684719 202.61760715 -77.63424801 189.45376424 C-77.67237664 175.92499914 -77.69169446 162.39631519 -77.69199616 148.86749518 C-77.69257975 141.27707403 -77.70100814 133.68684822 -77.72999382 126.09647751 C-77.75456895 119.6315209 -77.76174961 113.16683084 -77.74674629 106.70184009 C-77.73960177 103.40700478 -77.74307683 100.11280172 -77.76315689 96.81800461 C-77.78365297 93.23561698 -77.77304261 89.65457627 -77.75494385 86.07220459 C-77.76814382 85.04513157 -77.78134378 84.01805856 -77.79494375 82.95986211 C-77.6716747 72.22189159 -73.83945063 62.99259993 -66.38240051 55.24008179 C-57.22671936 47.18499646 -48.14406605 44.93020737 -36.20271301 45.14242554 C-34.74768372 45.15596069 -34.74768372 45.15596069 -33.26325989 45.16976929 C-30.88864895 45.19316447 -28.51456526 45.22594378 -26.14021301 45.26742554 C-26.16116028 44.56246948 -26.18210754 43.85751343 -26.20368958 43.13119507 C-26.2877002 39.88508823 -26.33913998 36.63921114 -26.39021301 33.39242554 C-26.42372864 32.28383179 -26.45724426 31.17523804 -26.49177551 30.03305054 C-26.59253146 21.46879537 -25.51427265 14.37182724 -19.95661926 7.61117554 C-19.2128302 7.00273804 -18.46904114 6.39430054 -17.70271301 5.76742554 C-16.59089661 4.82383179 -16.59089661 4.82383179 -15.45661926 3.86117554 C-10.44421298 0.41250477 -5.96832517 -0.02438128 0 0 Z " fill="#0A074F" transform="translate(146.1402130126953,68.73257446289063)"/>
<path d="M0 0 C1.87467545 -0.00322069 3.74934797 -0.00904006 5.62400818 -0.01725769 C10.70464212 -0.03177543 15.78448316 -0.00887324 20.86502123 0.02160144 C26.18379826 0.0479852 31.50255148 0.04266982 36.82138062 0.04151917 C45.75068402 0.04432694 54.67968118 0.07035138 63.60888672 0.11132812 C73.9330883 0.15853145 84.2569548 0.17432132 94.58125651 0.17212147 C104.51517996 0.17029065 114.44899431 0.18560488 124.38288498 0.2104969 C128.61004869 0.22108918 132.83717379 0.22658574 137.06435013 0.22817802 C142.04012632 0.23119104 147.01562109 0.24950261 151.9913044 0.27967644 C153.81783258 0.28844003 155.64439316 0.29212983 157.47094154 0.29039383 C159.96299286 0.28892156 162.45425603 0.30588775 164.94619751 0.32762146 C165.67002959 0.32297565 166.39386167 0.31832985 167.13962805 0.31354326 C172.6190566 0.39254025 175.74662294 1.66532112 179.54267883 5.57232666 C181.06982998 8.29671234 181.11348071 10.11578678 181.09204102 13.23168945 C181.09181442 14.33252869 181.09158783 15.43336792 181.09135437 16.56756592 C181.07587051 17.74997864 181.06038666 18.93239136 181.04443359 20.15063477 C181.04018875 21.36575745 181.03594391 22.58088013 181.03157043 23.83282471 C181.01477361 27.71502816 180.97711823 31.59671312 180.93896484 35.47875977 C180.92391936 38.11026269 180.91023072 40.74177374 180.89794922 43.37329102 C180.8648667 49.82529093 180.81465663 56.27698831 180.75146484 62.72875977 C179.97216173 62.72930453 179.19285862 62.7298493 178.38994026 62.73041058 C159.40097468 62.74539781 140.41225192 62.78792308 121.42341805 62.86085033 C112.24042242 62.89545843 103.05757626 62.92085036 93.87451172 62.92431641 C85.86768201 62.92736213 77.86111877 62.94793411 69.85439193 62.98928434 C65.61740032 63.01056106 61.38078704 63.02324253 57.14374161 63.01491356 C53.14951382 63.00733941 49.15605044 63.02333118 45.16196251 63.05681992 C43.70198379 63.06501296 42.24192847 63.06485088 40.78195763 63.05535698 C31.1897167 62.99919348 23.21759452 63.80773652 15.85251045 70.43834209 C9.33215335 77.23150803 8.68445112 84.398897 7.75146484 93.72875977 C-3.13853516 93.72875977 -14.02853516 93.72875977 -25.24853516 93.72875977 C-25.4067579 82.48903308 -25.5351478 71.25004738 -25.61122036 60.00945854 C-25.64773383 54.78981997 -25.69724969 49.57098354 -25.77661133 44.35180664 C-25.8527385 39.31374369 -25.89453964 34.27645159 -25.91267586 29.23785782 C-25.92559797 27.31684356 -25.95083305 25.39587094 -25.98864555 23.47518539 C-26.03956525 20.78128081 -26.04645514 18.09054957 -26.04321289 15.39624023 C-26.06837982 14.60429764 -26.09354675 13.81235504 -26.11947632 12.99641418 C-26.06817425 9.04969863 -25.47070739 6.25554328 -22.83940125 3.23258972 C-16.55442033 -1.37547029 -7.42958342 -0.07380376 0 0 Z " fill="#9C0190" transform="translate(160.24853515625,82.271240234375)"/>
<path d="M0 0 C0.84369141 -0.00563965 1.68738281 -0.0112793 2.55664062 -0.01708984 C18.31418494 0.16548972 32.48401989 7.21906188 43.875 17.8125 C54.87642306 29.25877064 60.87441259 43.62982953 61.1875 59.5625 C60.59140009 76.67633618 54.60454315 93.75987938 41.8125 105.6953125 C26.92528969 117.73301771 10.86122754 122.81885583 -8.1875 121.3125 C-24.50986572 118.56190961 -38.08019052 110.43322064 -48.4375 97.5 C-51.9900907 92.43780985 -54.67895537 86.95117554 -57.1875 81.3125 C-57.53167969 80.55710937 -57.87585938 79.80171875 -58.23046875 79.0234375 C-63.15437516 65.93925427 -61.13212387 48.87299025 -55.93359375 36.2734375 C-48.09031361 19.39008243 -35.65463359 9.29345226 -18.68359375 2.27734375 C-12.52061988 0.2037297 -6.44180539 0.04111291 0 0 Z " fill="#0D0A4F" transform="translate(184.1875,263.6875)"/>
<path d="M0 0 C1.87305509 -0.00485879 3.746105 -0.01230031 5.61914062 -0.02212524 C10.69569134 -0.04090963 15.77146859 -0.02212255 20.8479588 0.00453901 C26.163609 0.02719912 31.47922199 0.01895069 36.79490662 0.01504517 C45.72000746 0.01328034 54.64480416 0.03541883 63.56982422 0.07226562 C73.88610038 0.11461252 84.20193127 0.12161737 94.51827675 0.10914171 C104.44686988 0.09775007 114.37530634 0.10904993 124.30387688 0.1314888 C128.52744382 0.14077376 132.75091484 0.14253157 136.97448921 0.13831711 C141.94786677 0.13454804 146.92079154 0.15078347 151.89406586 0.1824379 C153.71855992 0.19091792 155.54309995 0.19262844 157.36760521 0.1870575 C159.85950325 0.18060337 162.35005275 0.19879876 164.84181213 0.22323608 C165.56273137 0.21567744 166.28365061 0.20811879 167.02641588 0.20033109 C172.0469741 0.28735248 174.90724527 1.58141719 178.76733398 4.74462891 C181.19654257 8.38844179 181.01018963 10.08075335 180.99438477 14.41918945 C180.99467682 15.0926239 180.99496887 15.76605835 180.99526978 16.4598999 C180.99387743 18.6838473 180.97832101 20.90745885 180.96264648 23.13134766 C180.95891601 24.67405514 180.9560692 26.216765 180.95407104 27.75947571 C180.94643728 31.81851755 180.92679104 35.87741611 180.90466309 39.93640137 C180.88419911 44.0788377 180.87506815 48.22129721 180.86499023 52.36376953 C180.84354486 60.49078839 180.80941207 68.61769082 180.76733398 76.74462891 C168.77987237 76.83743262 156.79249664 76.90844674 144.80474854 76.95187759 C139.23794844 76.97272543 133.67139467 77.00099218 128.10473633 77.04638672 C122.72955921 77.08994397 117.35461859 77.1137871 111.97927856 77.12413788 C109.93161294 77.13151148 107.88395982 77.14591043 105.83639526 77.16754913 C102.96153089 77.19671419 100.08763571 77.20057941 97.21264648 77.19873047 C96.37179001 77.21311157 95.53093353 77.22749268 94.66459656 77.24230957 C87.82400082 77.19490762 82.40907481 75.38636974 77.51098633 70.48828125 C75.32936584 67.05548217 73.57624788 63.53335655 71.86889648 59.84619141 C71.13473906 58.29921313 70.40035702 56.75234144 69.66577148 55.20556641 C68.5277674 52.78939064 67.39328145 50.37165826 66.26342773 47.95166016 C65.16214399 45.59944086 64.04750015 43.25390725 62.93139648 40.90869141 C62.60305817 40.1949234 62.27471985 39.4811554 61.93643188 38.74575806 C58.42197119 31.39352231 54.16417221 25.85160517 46.64233398 22.36962891 C45.62913086 21.88751953 44.61592773 21.40541016 43.57202148 20.90869141 C39.12189595 19.06170337 35.44922983 18.60798921 30.62182617 18.53930664 C29.38084167 18.51936142 28.13985718 18.4994162 26.86126709 18.47886658 C25.51224898 18.46188498 24.16322957 18.44500608 22.81420898 18.42822266 C21.42986447 18.40764015 20.04552606 18.38664334 18.66119385 18.36524963 C15.02478998 18.31016283 11.38833065 18.26069477 7.75183105 18.21240234 C4.03819873 18.16208927 0.32464654 18.10645448 -3.38891602 18.05126953 C-10.67009808 17.94385187 -17.95134696 17.84237082 -25.23266602 17.74462891 C-25.42366972 16.04075458 -25.55838728 14.33052798 -25.67016602 12.61962891 C-25.75137695 11.66830078 -25.83258789 10.71697266 -25.91625977 9.73681641 C-25.05054437 5.94745646 -23.96626482 4.28594073 -20.89280891 1.92354202 C-14.51065259 -0.90488039 -6.85667639 -0.06205159 0 0 Z " fill="#FA3968" transform="translate(208.232666015625,158.25537109375)"/>
<path d="M0 0 C7.64968023 -0.12412112 15.2987669 -0.2145887 22.94921875 -0.2746582 C25.54860656 -0.29971449 28.14792453 -0.33376892 30.74707031 -0.37719727 C34.49561859 -0.43823684 38.24323078 -0.46630035 41.9921875 -0.48828125 C43.14363251 -0.51408768 44.29507751 -0.5398941 45.48141479 -0.56648254 C53.78373298 -0.56933192 60.69100451 0.97692979 66.91207886 6.78520203 C72.76243788 13.12216438 74.44560552 18.96170255 74.34057617 27.40185547 C74.34123329 28.79305351 74.34123329 28.79305351 74.34190369 30.21235657 C74.33982118 33.26418437 74.31651532 36.31545619 74.29296875 39.3671875 C74.28737089 41.48853251 74.28310169 43.60988141 74.28010559 45.73123169 C74.26867185 51.30439024 74.23921714 56.87731285 74.20599365 62.45037842 C74.17526117 68.14136565 74.16159345 73.83239114 74.14648438 79.5234375 C74.11434618 90.68239511 74.06316747 101.84117791 74 113 C71.13529635 111.86687236 68.31429221 110.69388045 65.5 109.4375 C61.74613087 108.00649425 58.21838449 107.67395124 54.21875 107.41015625 C53.05279297 107.33031494 51.88683594 107.25047363 50.68554688 107.16821289 C49.79931641 107.11270264 48.91308594 107.05719238 48 107 C47.99857498 106.13271271 47.99714996 105.26542542 47.99568176 104.37185669 C47.97778686 96.16309744 47.93598203 87.95487278 47.86790943 79.74637032 C47.833747 75.52713156 47.80854632 71.30825075 47.80444336 67.08886719 C47.80013713 63.01012368 47.77148441 58.93218616 47.72656822 54.85369492 C47.7136669 53.30458156 47.7092592 51.75537138 47.71384621 50.20621109 C47.73417708 41.2477822 47.37009806 33.60270936 42 26 C39.90717054 23.74951366 39.90717054 23.74951366 37.5625 22.5 C36.84191406 22.0565625 36.12132812 21.613125 35.37890625 21.15625 C30.42976735 18.7507572 25.99955281 17.74284437 20.5078125 17.5859375 C19.30898438 17.54726562 18.11015625 17.50859375 16.875 17.46875 C15.6375 17.4378125 14.4 17.406875 13.125 17.375 C11.86429687 17.33632812 10.60359375 17.29765625 9.3046875 17.2578125 C6.20335827 17.16383283 3.10169955 17.08083991 0 17 C0 11.39 0 5.78 0 0 Z " fill="#F9832D" transform="translate(355,128)"/>
<path d="M0 0 C2.20749584 1.42816644 4.29455309 2.93841999 6.37890625 4.5390625 C7.24515625 5.1165625 8.11140625 5.6940625 9.00390625 6.2890625 C17.00341961 13.86754884 22.7964848 24.68114691 23.6171875 35.75390625 C23.87205032 48.5372889 21.38910191 60.16585912 13.37890625 70.5390625 C11.19140625 72.3125 11.19140625 72.3125 9.37890625 73.5390625 C9.00378906 72.81460938 8.62867188 72.09015625 8.2421875 71.34375 C3.80257175 62.1357819 3.80257175 62.1357819 -3.62109375 55.5390625 C-2.09269241 52.35489304 -0.34402737 49.3431787 1.4765625 46.3203125 C4.71268321 39.93212616 4.582795 30.75921599 2.66015625 24.01953125 C-0.7698235 16.78614654 -6.7654718 11.82022717 -13.94921875 8.4453125 C-20.82180949 6.11425833 -28.88349194 6.90007376 -35.58984375 9.5 C-42.24963854 12.90674118 -46.87896904 18.17238301 -49.203125 25.33203125 C-50.84412841 33.99714271 -50.57049034 43.04047838 -45.62109375 50.5390625 C-45.08097656 51.07144531 -44.54085937 51.60382813 -43.984375 52.15234375 C-42.62109375 53.5390625 -42.62109375 53.5390625 -42.62109375 55.5390625 C-43.50796875 56.2403125 -44.39484375 56.9415625 -45.30859375 57.6640625 C-50.4006412 61.73288529 -53.51919668 67.42445284 -55.62109375 73.5390625 C-64.17882355 67.67090492 -67.6451 58.42965487 -69.62109375 48.5390625 C-71.13499536 34.58171173 -68.29233153 22.50353827 -59.87109375 11.1875 C-55.17028741 5.51999558 -50.16471318 1.85114064 -43.62109375 -1.4609375 C-42.51894531 -2.08162109 -42.51894531 -2.08162109 -41.39453125 -2.71484375 C-28.9479452 -8.85259323 -11.76178454 -6.55574876 0 0 Z " fill="#FAF3CA" transform="translate(207.62109375,283.4609375)"/>
<path d="M0 0 C0 15.84 0 31.68 0 48 C-7.59 48.33 -15.18 48.66 -23 49 C-28.76071885 50.64580278 -28.76071885 50.64580278 -34 53 C-35.33268942 53.66795294 -36.66593818 54.33479229 -38 55 C-38.09945752 49.87717241 -38.17174409 44.75491646 -38.21972656 39.63134766 C-38.23974522 37.89133911 -38.26696886 36.15139701 -38.30175781 34.41162109 C-38.35070952 31.89924654 -38.37306587 29.38776725 -38.390625 26.875 C-38.41127014 26.10696045 -38.43191528 25.3389209 -38.45318604 24.54760742 C-38.45588811 17.92788336 -36.42435609 12.82424988 -32.10546875 7.79296875 C-31.47253906 7.26316406 -30.83960937 6.73335937 -30.1875 6.1875 C-29.56230469 5.64480469 -28.93710938 5.10210937 -28.29296875 4.54296875 C-18.41396765 -2.10474068 -13.30841464 0 0 0 Z " fill="#F7822D" transform="translate(121,128)"/>
<path d="M0 0 C0.95830215 -0.00861557 1.91660431 -0.01723114 2.90394592 -0.02610779 C6.06709918 -0.04878408 9.22936776 -0.04202605 12.39257812 -0.03295898 C14.59306095 -0.03819356 16.79354152 -0.04446942 18.99401855 -0.05174255 C23.60403 -0.06214967 28.21373282 -0.05758023 32.82373047 -0.04296875 C38.73226064 -0.02577475 44.63981893 -0.04928293 50.54824066 -0.08445835 C55.09159798 -0.10641419 59.63472206 -0.1049953 64.17811584 -0.09669304 C66.35662401 -0.09587265 68.53514914 -0.10275278 70.71360779 -0.11746407 C73.75889934 -0.13487727 76.80243546 -0.12039384 79.84765625 -0.09765625 C81.19749352 -0.11519455 81.19749352 -0.11519455 82.57460022 -0.13308716 C87.03295757 -0.06533244 88.85791424 0.09390559 92.48718262 2.91273499 C94.42382812 5.53344727 94.42382812 5.53344727 94.98632812 8.09594727 C94.20345505 11.48839728 93.25052514 12.46463765 90.42382812 14.53344727 C87.2081865 15.13914471 84.02583584 15.07963599 80.76171875 15.05102539 C79.78244919 15.05803467 78.80317963 15.06504395 77.79423523 15.07226562 C74.55589476 15.08987675 71.31842754 15.07821142 68.08007812 15.06469727 C65.83093091 15.06739127 63.58178483 15.07127293 61.3326416 15.07629395 C56.61829543 15.08219324 51.90425236 15.07361188 47.18994141 15.05493164 C41.14351527 15.0321422 35.0977993 15.04526292 29.05139923 15.0692215 C24.40686684 15.08366762 19.76250314 15.07907886 15.1179657 15.06871033 C12.88840145 15.06603978 10.65882195 15.06932428 8.42927551 15.07862854 C5.31441613 15.08877428 2.2007108 15.07331987 -0.9140625 15.05102539 C-2.29970146 15.06317078 -2.29970146 15.06317078 -3.71333313 15.07556152 C-9.93638578 14.99293913 -9.93638578 14.99293913 -13.14489746 12.68859863 C-15.12545231 9.70636445 -15.23349627 8.03917737 -14.57617188 4.53344727 C-10.24994025 -0.27868439 -6.04734181 -0.04385442 0 0 Z " fill="#0E0B4D" transform="translate(296.576171875,339.466552734375)"/>
<path d="M0 0 C0.95830215 -0.00861557 1.91660431 -0.01723114 2.90394592 -0.02610779 C6.06709918 -0.04878408 9.22936776 -0.04202605 12.39257812 -0.03295898 C14.59306095 -0.03819356 16.79354152 -0.04446942 18.99401855 -0.05174255 C23.60403 -0.06214967 28.21373282 -0.05758023 32.82373047 -0.04296875 C38.73226064 -0.02577475 44.63981893 -0.04928293 50.54824066 -0.08445835 C55.09159798 -0.10641419 59.63472206 -0.1049953 64.17811584 -0.09669304 C66.35662401 -0.09587265 68.53514914 -0.10275278 70.71360779 -0.11746407 C73.75889934 -0.13487727 76.80243546 -0.12039384 79.84765625 -0.09765625 C81.19749352 -0.11519455 81.19749352 -0.11519455 82.57460022 -0.13308716 C87.03295757 -0.06533244 88.85791424 0.09390559 92.48718262 2.91273499 C94.42382812 5.53344727 94.42382812 5.53344727 94.98632812 8.09594727 C94.20345505 11.48839728 93.25052514 12.46463765 90.42382812 14.53344727 C87.2081865 15.13914471 84.02583584 15.07963599 80.76171875 15.05102539 C79.78244919 15.05803467 78.80317963 15.06504395 77.79423523 15.07226562 C74.55589476 15.08987675 71.31842754 15.07821142 68.08007812 15.06469727 C65.83093091 15.06739127 63.58178483 15.07127293 61.3326416 15.07629395 C56.61829543 15.08219324 51.90425236 15.07361188 47.18994141 15.05493164 C41.14351527 15.0321422 35.0977993 15.04526292 29.05139923 15.0692215 C24.40686684 15.08366762 19.76250314 15.07907886 15.1179657 15.06871033 C12.88840145 15.06603978 10.65882195 15.06932428 8.42927551 15.07862854 C5.31441613 15.08877428 2.2007108 15.07331987 -0.9140625 15.05102539 C-2.29970146 15.06317078 -2.29970146 15.06317078 -3.71333313 15.07556152 C-9.93638578 14.99293913 -9.93638578 14.99293913 -13.14489746 12.68859863 C-15.12545231 9.70636445 -15.23349627 8.03917737 -14.57617188 4.53344727 C-10.24994025 -0.27868439 -6.04734181 -0.04385442 0 0 Z " fill="#0E0B4D" transform="translate(296.576171875,293.466552734375)"/>
<path d="M0 0 C5.64686565 3.3690493 9.76481025 7.63230741 11.64453125 14.0546875 C11.67419424 16.05446751 11.67753913 18.0549599 11.64453125 20.0546875 C-2.17063323 25.19521382 -13.63180328 25.68490923 -27.35546875 20.0546875 C-28.0186882 13.68778078 -26.32209308 10.02922457 -22.35546875 5.0546875 C-15.98730219 -0.84751565 -8.4367428 -3.38589014 0 0 Z " fill="#F5812D" transform="translate(192.35546875,346.9453125)"/>
<path d="M0 0 C3.28763709 2.38514848 4.76334986 3.54269082 6.1875 7.3125 C6.92174998 12.8969365 6.6370866 17.677118 3.1875 22.3125 C-0.77313934 25.3806009 -4.49106577 26.65534859 -9.5 26.3125 C-13.52181854 25.62601718 -15.96864193 24.3287131 -18.8125 21.3125 C-21.68264619 16.62052343 -21.57637248 11.64417556 -20.8125 6.3125 C-19.20774247 3.07101766 -16.87396654 1.11775048 -14 -1.0625 C-8.97210151 -2.49904243 -4.60838805 -2.4115929 0 0 Z " fill="#F7822D" transform="translate(191.8125,305.6875)"/>
<path d="M0 0 C1.70542969 -0.0299707 1.70542969 -0.0299707 3.4453125 -0.06054688 C11.77738613 -0.05565716 11.77738613 -0.05565716 15.84765625 2.3125 C17.96704234 4.84644732 18.70598755 6.11701056 18.625 9.4375 C17.02172852 12.05834961 17.02172852 12.05834961 14.625 14.4375 C11.64819336 15.06860352 11.64819336 15.06860352 8.21484375 15.06640625 C6.97798828 15.06833984 5.74113281 15.07027344 4.46679688 15.07226562 C3.17837891 15.04841797 1.88996094 15.02457031 0.5625 15 C-0.72978516 15.01095703 -2.02207031 15.02191406 -3.35351562 15.03320312 C-12.82828682 14.95906564 -12.82828682 14.95906564 -15.27514648 12.62475586 C-16.94982864 9.29435022 -16.27454022 6.971408 -15.375 3.4375 C-11.84165924 -1.50903395 -5.47050039 -0.0338826 0 0 Z " fill="#0A084E" transform="translate(331.375,428.5625)"/>
</svg>
